# xmcd CD database file
#
# Track frame offsets:
#	150
#	23787
#	37282
#	56057
#	69762
#	88813
#	105448
#	116580
#	136397
#	152697
#	169652
#	184963
#	198793
#	221328
#
# Disc length: 3128 seconds
#
# Revision: 1
# Processed by: cddbd v1.5.2PL0 Copyright (c) Steve Scherf et al.
# Submitted via: CDex 1.70beta3
#
DISCID=be0c360e
DTITLE=OVERGROUND ACOUSTIC UNDERGROUND - New Acoustic Tale
DYEAR=2009
DGENRE=J-Rock
TTITLE0=A Strait Gate
TTITLE1=New Tale
TTITLE2=Remedy
TTITLE3=Freight Train
TTITLE4=UKIGUSA
TTITLE5=The World
TTITLE6=Tinte
TTITLE7=In all of a day
TTITLE8=Casa Blanca
TTITLE9=all the way
TTITLE10=Ankaa
TTITLE11=Love Child
TTITLE12=Ice Queen
TTITLE13=otherwhere
EXTD=YEAR: 2009
EXTT0=
EXTT1=
EXTT2=
EXTT3=
EXTT4=
EXTT5=
EXTT6=
EXTT7=
EXTT8=
EXTT9=
EXTT10=
EXTT11=
EXTT12=
EXTT13=
PLAYORDER=
